<?xml version="1.0" encoding="UTF-8" standalone="no"?>
<!-- Created with Inkscape (http://www.inkscape.org/) -->

<svg
   width="90mm"
   height="25mm"
   viewBox="0 0 90 25"
   version="1.1"
   id="svg5"
   xml:space="preserve"
   inkscape:version="1.2.1 (9c6d41e410, 2022-07-14)"
   sodipodi:docname="drawing.svg"
   xmlns:inkscape="http://www.inkscape.org/namespaces/inkscape"
   xmlns:sodipodi="http://sodipodi.sourceforge.net/DTD/sodipodi-0.dtd"
   xmlns:xlink="http://www.w3.org/1999/xlink"
   xmlns="http://www.w3.org/2000/svg"
   xmlns:svg="http://www.w3.org/2000/svg"><sodipodi:namedview
     id="namedview7"
     pagecolor="#ffffff"
     bordercolor="#000000"
     borderopacity="0.51372549"
     inkscape:showpageshadow="2"
     inkscape:pageopacity="0"
     inkscape:pagecheckerboard="0"
     inkscape:deskcolor="#757575"
     inkscape:document-units="px"
     showgrid="false"
     inkscape:zoom="3.659624"
     inkscape:cx="209.31112"
     inkscape:cy="86.347668"
     inkscape:window-width="2560"
     inkscape:window-height="1334"
     inkscape:window-x="-11"
     inkscape:window-y="-11"
     inkscape:window-maximized="1"
     inkscape:current-layer="layer1" /><defs
     id="defs2"><linearGradient
       inkscape:collect="always"
       id="linearGradient18082"><stop
         style="stop-color:#000000;stop-opacity:1;"
         offset="0"
         id="stop18078" /><stop
         style="stop-color:#353535;stop-opacity:0;"
         offset="0.99624765"
         id="stop18080" /></linearGradient><rect
       x="-165.04428"
       y="-319.15848"
       width="1019.7769"
       height="782.59406"
       id="rect13666" /><rect
       x="75.355186"
       y="23.186211"
       width="240.36372"
       height="70.331505"
       id="rect12184" /><linearGradient
       id="linearGradient6114"
       inkscape:swatch="solid"><stop
         style="stop-color:#098cff;stop-opacity:1;"
         offset="0"
         id="stop6112" /></linearGradient><rect
       x="80.765305"
       y="30.528511"
       width="246.54671"
       height="62.602768"
       id="rect3980" /><rect
       x="344.70166"
       y="23.959084"
       width="28.982763"
       height="50.23679"
       id="rect1017" /><rect
       x="43.280926"
       y="37.484375"
       width="297.55637"
       height="78.446678"
       id="rect905" /><rect
       x="318.81039"
       y="47.918167"
       width="59.124836"
       height="31.301386"
       id="rect899" /><rect
       x="335.42719"
       y="54.101158"
       width="34.392879"
       height="11.979542"
       id="rect231" /><meshgradient
       inkscape:collect="always"
       id="meshgradient12168"
       gradientUnits="userSpaceOnUse"
       x="25.301752"
       y="11.043027"
       gradientTransform="matrix(1.0817254,0,0,1.0817254,0.32884601,-3.0606241)"><meshrow
         id="meshrow12170"><meshpatch
           id="meshpatch12172"><stop
             path="c 18.1945,0  36.3889,0  54.5834,0"
             style="stop-color:#ffffff;stop-opacity:1"
             id="stop12174" /><stop
             path="c 0,2.30385  0,4.6077  0,6.91155"
             style="stop-color:#00b9af;stop-opacity:1"
             id="stop12176" /><stop
             path="c -18.1945,0  -36.3889,0  -54.5834,0"
             style="stop-color:#ffffff;stop-opacity:1"
             id="stop12178" /><stop
             path="c 0,-2.30385  0,-4.6077  0,-6.91155"
             style="stop-color:#00b9af;stop-opacity:1"
             id="stop12180" /></meshpatch></meshrow></meshgradient><linearGradient
       inkscape:collect="always"
       xlink:href="#linearGradient18082"
       id="linearGradient18084"
       x1="35.652664"
       y1="20.499531"
       x2="90.50061"
       y2="20.499531"
       gradientUnits="userSpaceOnUse"
       gradientTransform="matrix(1.0817254,0,0,1.0817254,-11.011101,-9.5517664)" /></defs><g
     inkscape:label="Layer 1"
     inkscape:groupmode="layer"
     id="layer1"><text
       xml:space="preserve"
       style="font-style:normal;font-variant:normal;font-weight:normal;font-stretch:normal;font-size:3.175px;font-family:'Franklin Gothic Book';-inkscape-font-specification:'Franklin Gothic Book, ';fill:#000000;stroke-width:0.264583"
       x="15.616359"
       y="18.219086"
       id="text173"><tspan
         sodipodi:role="line"
         id="tspan171"
         style="font-style:normal;font-variant:normal;font-weight:normal;font-stretch:normal;font-family:'Franklin Gothic Book';-inkscape-font-specification:'Franklin Gothic Book, ';stroke-width:0.264583"
         x="15.616359"
         y="18.219086" /></text><text
       xml:space="preserve"
       transform="scale(0.26458333)"
       id="text229"
       style="font-style:normal;font-variant:normal;font-weight:normal;font-stretch:normal;font-family:'Franklin Gothic Book';-inkscape-font-specification:'Franklin Gothic Book, ';white-space:pre;shape-inside:url(#rect231);fill:#000000" /><text
       xml:space="preserve"
       transform="scale(0.26458333)"
       id="text897"
       style="font-style:normal;font-variant:normal;font-weight:normal;font-stretch:normal;font-family:'Franklin Gothic Book';-inkscape-font-specification:'Franklin Gothic Book, ';white-space:pre;shape-inside:url(#rect899);fill:#000000;fill-opacity:0" /><text
       xml:space="preserve"
       transform="scale(0.26458333)"
       id="text903"
       style="font-style:normal;font-variant:normal;font-weight:normal;font-stretch:normal;font-size:37.3333px;font-family:'Franklin Gothic Book';-inkscape-font-specification:'Franklin Gothic Book, ';white-space:pre;shape-inside:url(#rect905);fill:#000000;fill-opacity:0" /><text
       xml:space="preserve"
       style="font-style:normal;font-variant:normal;font-weight:normal;font-stretch:normal;font-size:10.685px;font-family:'Franklin Gothic Book';-inkscape-font-specification:'Franklin Gothic Book, ';mix-blend-mode:multiply;fill:url(#meshgradient12168);fill-opacity:1;stroke:url(#linearGradient18084);stroke-width:0.286206;stroke-linecap:butt;stroke-linejoin:bevel;stroke-dasharray:none;stroke-dashoffset:0;stroke-opacity:0.947236;paint-order:normal"
       x="26.983625"
       y="16.183907"
       id="text911"><tspan
         sodipodi:role="line"
         id="tspan909"
         style="font-style:normal;font-variant:normal;font-weight:normal;font-stretch:normal;font-size:10.685px;font-family:'Bauhaus 93';-inkscape-font-specification:'Bauhaus 93, Normal';font-variant-ligatures:normal;font-variant-caps:normal;font-variant-numeric:normal;font-variant-east-asian:normal;fill:url(#meshgradient12168);fill-opacity:1;stroke:url(#linearGradient18084);stroke-width:0.286206;stroke-linecap:butt;stroke-linejoin:bevel;stroke-dasharray:none;stroke-dashoffset:0;stroke-opacity:0.947236;paint-order:normal"
         x="26.983625"
         y="16.183907">KarmaCloud</tspan></text><text
       xml:space="preserve"
       transform="scale(0.26458333)"
       id="text1015"
       style="font-style:normal;font-variant:normal;font-weight:normal;font-stretch:normal;font-size:37.3333px;font-family:'Franklin Gothic Book';-inkscape-font-specification:'Franklin Gothic Book, ';white-space:pre;shape-inside:url(#rect1017);fill:#ff7f2a;fill-opacity:0" /><text
       xml:space="preserve"
       transform="scale(0.26458333)"
       id="text3978"
       style="font-style:normal;font-variant:normal;font-weight:normal;font-stretch:normal;font-size:37.3333px;font-family:'Bauhaus 93';-inkscape-font-specification:'Bauhaus 93, Normal';font-variant-ligatures:normal;font-variant-caps:normal;font-variant-numeric:normal;font-variant-east-asian:normal;white-space:pre;shape-inside:url(#rect3980);fill:#ff6b09;fill-opacity:1;stroke-width:1;stroke-dasharray:none" /><text
       xml:space="preserve"
       transform="scale(0.26458333)"
       id="text12182"
       style="font-style:normal;font-variant:normal;font-weight:normal;font-stretch:normal;font-size:37.3333px;font-family:'Bauhaus 93';-inkscape-font-specification:'Bauhaus 93, Normal';font-variant-ligatures:normal;font-variant-caps:normal;font-variant-numeric:normal;font-variant-east-asian:normal;white-space:pre;shape-inside:url(#rect12184);fill:#098cff;fill-opacity:1;stroke:#000000;stroke-width:1;stroke-linecap:butt;stroke-linejoin:bevel;stroke-dasharray:none;stroke-dashoffset:0;stroke-opacity:0.947236;paint-order:normal" /><g
       id="g17790"
       transform="matrix(0.94423618,0,0,0.96150803,-2.2083793,-7.6691374)"><path
         style="fill:#d2e9f0;stroke-width:0.0274254"
         d="M 9.6297747,29.053482 C 9.5317289,29.015757 9.2540468,28.888758 9.0127034,28.771262 6.5885889,27.591102 5.5473893,25.838215 5.8308945,23.414603 6.0335702,21.68198 6.8836675,20.40526 8.3479161,19.634408 l 0.2671192,-0.140624 v -0.284452 c 0,-1.74901 1.1099518,-4.000411 2.4682847,-5.006612 0.668326,-0.49507 1.652033,-0.923736 2.523136,-1.099496 0.488285,-0.09852 1.377366,-0.09186 1.878639,0.01407 1.710622,0.361495 3.235481,1.451267 4.1697,2.979963 0.08757,0.143297 0.167244,0.270065 0.177047,0.281706 0.0098,0.01164 0.276109,-0.06417 0.59179,-0.168473 0.737508,-0.243671 0.94864,-0.287399 1.383015,-0.286439 0.853653,0.0019 1.837827,0.408915 2.387233,0.987296 0.534024,0.562188 0.838298,1.301845 0.869085,2.112645 0.01676,0.441423 0.0037,0.533265 -0.165085,1.157568 -0.0952,0.352188 -0.107557,0.425165 -0.07382,0.43586 0.104016,0.03297 0.745128,0.379368 0.956302,0.516691 0.919012,0.597624 1.619072,1.456776 1.918333,2.354288 0.246566,0.739471 0.0568,2.555577 -0.341767,3.27084 -0.586066,1.051739 -1.896811,1.984997 -3.214773,2.288935 l -0.26489,0.06109 -7.034612,0.0064 -7.0346123,0.0064 z m 6.0816443,-3.350483 c 1.945544,-2.272494 3.354066,-3.944271 3.415759,-4.05417 0.01877,-0.03343 -0.09866,-0.03907 -0.81412,-0.03907 -0.86492,0 -0.997795,-0.01422 -0.96453,-0.103227 0.0098,-0.02619 0.412139,-0.74588 0.894114,-1.599319 0.481974,-0.853438 0.876317,-1.559985 0.876317,-1.570103 0,-0.01012 -0.80167,-0.0184 -1.781489,-0.0184 h -1.781489 l -0.05444,0.185122 c -0.02994,0.101816 -0.128395,0.450462 -0.218777,0.774767 -0.09038,0.324305 -0.350257,1.253475 -0.5775,2.064822 -0.227242,0.811347 -0.413168,1.480869 -0.413168,1.487827 0,0.007 0.345947,0.01265 0.768771,0.01265 0.656595,0 0.771066,0.006 0.784491,0.04096 0.01707,0.04448 -0.03574,0.204229 -0.878895,2.658652 -0.594637,1.730982 -0.571362,1.661022 -0.552607,1.661022 0.0066,0 0.590537,-0.675693 1.297568,-1.50154 z"
         id="path17808" /><path
         style="fill:#a2d2e0;stroke-width:0.0274254"
         d="M 9.4240842,28.930983 C 6.8090155,27.801479 5.6182487,26.02721 5.8426332,23.594541 6.0085247,21.796025 6.859369,20.447438 8.2996433,19.700185 c 0.1659236,-0.08609 0.3091768,-0.167762 0.3183407,-0.181502 0.00916,-0.01374 0.023696,-0.20605 0.032293,-0.427355 0.055487,-1.428262 0.7221453,-3.03662 1.752617,-4.228305 0.701471,-0.811214 2.022353,-1.511381 3.289846,-1.743868 2.151769,-0.394682 4.705363,0.911144 5.974722,3.055283 0.08203,0.138558 0.161147,0.251923 0.175819,0.251923 0.01467,0 0.286567,-0.08555 0.60421,-0.190115 0.725367,-0.238779 0.928163,-0.281434 1.345444,-0.282993 0.829098,-0.0031 1.782526,0.381599 2.343874,0.945725 0.587796,0.590704 0.889088,1.34884 0.891194,2.242497 l 0.0011,0.452519 -0.13024,0.483439 c -0.07163,0.265891 -0.130241,0.496869 -0.130241,0.513284 0,0.01641 0.17106,0.116643 0.380133,0.222729 0.690493,0.350361 1.274664,0.783022 1.667638,1.23512 0.382097,0.439585 0.773412,1.133829 0.884987,1.570081 0.143283,0.560232 0.07033,1.790173 -0.152416,2.569523 -0.357962,1.252465 -1.825105,2.465201 -3.424838,2.83096 l -0.274254,0.0627 -7.0209,0.0075 -7.0208995,0.0075 z m 5.5157748,-2.288664 c 2.91271,-3.40273 4.233951,-4.973839 4.233951,-5.034661 0,-0.01494 -0.357031,-0.0255 -0.870756,-0.02574 -0.478916,-2.2e-4 -0.887347,-0.01093 -0.907624,-0.02379 -0.04756,-0.03014 -0.107549,0.08308 0.906038,-1.710134 0.4667,-0.825673 0.840829,-1.513708 0.831399,-1.528966 -0.01128,-0.01824 -0.627065,-0.02774 -1.798765,-0.02774 h -1.781619 l -0.02707,0.06171 c -0.05657,0.128953 -1.259586,4.470597 -1.245197,4.49388 0.0083,0.01345 0.354161,0.02445 0.768553,0.02445 0.624168,0 0.755995,0.0067 0.768326,0.03879 0.0082,0.02133 -0.319248,1.010684 -0.727633,2.198553 -0.408386,1.187868 -0.742519,2.164926 -0.742519,2.171238 0,0.04421 0.116932,-0.08153 0.592917,-0.637591 z"
         id="path17806" /><path
         style="fill:#5db1cb;stroke-width:0.0274254"
         d="M 9.4926477,28.932058 C 6.7974838,27.76672 5.6320033,26.030331 5.8742235,23.541157 6.0470701,21.7649 6.8809872,20.477632 8.3681667,19.691404 l 0.2880067,-0.152261 0.017233,-0.411381 c 0.055342,-1.321068 0.558167,-2.662941 1.4502546,-3.870241 1.178506,-1.594925 3.435985,-2.467348 5.375147,-2.077276 1.661066,0.334133 3.274629,1.510897 4.163612,3.036505 0.06906,0.118516 0.140625,0.221263 0.159035,0.228327 0.01841,0.0071 0.296772,-0.07351 0.618585,-0.179044 1.090716,-0.3577 1.552886,-0.378904 2.367634,-0.108624 0.778157,0.258141 1.291949,0.628532 1.666557,1.201416 0.548492,0.838803 0.673204,1.702185 0.39293,2.720276 -0.0693,0.251725 -0.125997,0.480289 -0.125997,0.507921 0,0.03672 0.08573,0.09292 0.318548,0.208805 1.234795,0.614648 2.010135,1.38023 2.477828,2.446645 0.195116,0.444894 0.251645,0.915448 0.195928,1.630909 -0.07597,0.975537 -0.243783,1.600684 -0.553456,2.061776 -0.663995,0.988665 -1.838281,1.77895 -3.055919,2.056608 l -0.274254,0.06254 -7.0209,0.0071 -7.0208995,0.0071 z M 15.89482,25.559016 c 2.915512,-3.421375 3.353471,-3.94791 3.315426,-3.985955 -0.01,-0.01 -0.416464,-0.01815 -0.903288,-0.01815 -0.529409,0 -0.891607,-0.01047 -0.901237,-0.02605 -0.0089,-0.01433 0.385342,-0.735648 0.875994,-1.60293 0.490652,-0.867282 0.892095,-1.589873 0.892095,-1.605758 0,-0.01589 -0.01258,-0.02888 -0.02795,-0.02888 -0.01537,0 -0.828751,-0.0057 -1.807509,-0.01276 -1.518557,-0.01089 -1.78432,-0.007 -1.812023,0.02636 -0.04367,0.05262 -1.293281,4.515959 -1.27655,4.559559 0.0101,0.02633 0.191899,0.03431 0.781937,0.03431 0.596755,0 0.768762,0.0077 0.768731,0.03428 -2.2e-5,0.01885 -0.333241,1.00251 -0.740486,2.1859 -0.407244,1.183389 -0.740445,2.1753 -0.740445,2.204245 0,0.08424 0.0042,0.07953 1.575304,-1.764164 z"
         id="path17804" /><path
         style="fill:#5898ac;stroke-width:0.0274254"
         d="M 9.478935,28.896288 C 7.3688562,27.975761 6.2526329,26.760355 5.9354418,25.037933 c -0.060628,-0.329224 -0.067876,-1.341392 -0.012274,-1.714086 0.2510509,-1.682775 1.0435384,-2.860753 2.4110799,-3.583905 0.390057,-0.206261 0.3630638,-0.168927 0.3630638,-0.502155 0,-1.627354 0.9808918,-3.756854 2.2033275,-4.783388 1.10756,-0.930068 2.788297,-1.471124 4.104512,-1.321306 1.836972,0.209092 3.650704,1.411661 4.603568,3.05233 0.0851,0.146537 0.17597,0.273753 0.201923,0.282701 0.02595,0.0089 0.309834,-0.06986 0.630848,-0.175141 1.081153,-0.354564 1.56199,-0.376886 2.366184,-0.109845 0.912497,0.303003 1.452423,0.75531 1.84706,1.547318 0.373342,0.749271 0.428954,1.462401 0.183567,2.353951 -0.07009,0.254643 -0.1237,0.487474 -0.11914,0.517401 0.006,0.03942 0.116541,0.109753 0.401214,0.255284 1.145528,0.585616 1.877626,1.296571 2.334574,2.267151 0.248981,0.528847 0.306994,0.91642 0.253133,1.691135 -0.09412,1.35383 -0.321754,1.951369 -1.017832,2.671854 -0.746048,0.772206 -1.574954,1.248419 -2.572704,1.478037 l -0.267707,0.06161 -7.0209,0.0065 -7.0208992,0.0065 z m 5.200611,-1.87687 c 0.18798,-0.222489 0.847225,-1.00177 1.46499,-1.731736 2.964179,-3.502546 3.096124,-3.661945 3.075569,-3.715512 -0.01233,-0.03213 -0.158298,-0.03597 -0.904025,-0.02379 -0.583123,0.0095 -0.8952,0.005 -0.906392,-0.0131 -0.01576,-0.02549 0.320102,-0.631206 1.385679,-2.499031 0.244104,-0.427884 0.402009,-0.732361 0.387391,-0.746979 -0.02556,-0.02556 -3.641005,-0.03823 -3.68198,-0.01291 -0.01246,0.0077 -0.03742,0.07283 -0.05546,0.144734 -0.03749,0.149377 -0.460632,1.664406 -0.923647,3.307058 -0.259229,0.919678 -0.3094,1.126803 -0.281176,1.160811 0.02984,0.03595 0.1323,0.03881 0.779466,0.02175 0.453747,-0.01196 0.751288,-0.0097 0.760908,0.0059 0.0087,0.01406 -0.02172,0.129946 -0.06759,0.25753 -0.242943,0.675862 -1.448617,4.182912 -1.448617,4.213718 0,0.09326 0.09927,0.0051 0.414881,-0.368452 z"
         id="path17802" /><path
         style="fill:#349fc1;stroke-width:0.0274254"
         d="M 9.478935,28.896288 C 7.3688562,27.975761 6.2526329,26.760355 5.9354418,25.037933 c -0.060628,-0.329224 -0.067876,-1.341392 -0.012274,-1.714086 0.2510509,-1.682775 1.0435384,-2.860753 2.4110799,-3.583905 0.390057,-0.206261 0.3630638,-0.168927 0.3630638,-0.502155 0,-1.627354 0.9808918,-3.756854 2.2033275,-4.783388 1.10756,-0.930068 2.788297,-1.471124 4.104512,-1.321306 1.836972,0.209092 3.650704,1.411661 4.603568,3.05233 0.0851,0.146537 0.17597,0.273753 0.201923,0.282701 0.02595,0.0089 0.309834,-0.06986 0.630848,-0.175141 1.081153,-0.354564 1.56199,-0.376886 2.366184,-0.109845 0.912497,0.303003 1.452423,0.75531 1.84706,1.547318 0.373342,0.749271 0.428954,1.462401 0.183567,2.353951 -0.07009,0.254643 -0.1237,0.487474 -0.11914,0.517401 0.006,0.03942 0.116541,0.109753 0.401214,0.255284 1.145528,0.585616 1.877626,1.296571 2.334574,2.267151 0.248981,0.528847 0.306994,0.91642 0.253133,1.691135 -0.09412,1.35383 -0.321754,1.951369 -1.017832,2.671854 -0.746048,0.772206 -1.574954,1.248419 -2.572704,1.478037 l -0.267707,0.06161 -7.0209,0.0065 -7.0208992,0.0065 z m 4.980267,-1.616329 c 0.06647,-0.07919 0.366497,-0.426799 0.666735,-0.772462 0.886896,-1.021082 3.442232,-4.034555 3.919541,-4.622262 0.204523,-0.251827 0.247189,-0.340225 0.176326,-0.365322 -0.01885,-0.0067 -0.426122,-0.0059 -0.905037,0.0018 -0.682291,0.01092 -0.870756,0.0066 -0.870756,-0.02008 0,-0.02714 1.017178,-1.838955 1.656057,-2.949799 0.13831,-0.240487 0.14765,-0.274018 0.08321,-0.298745 -0.06966,-0.02673 -3.566619,-0.01915 -3.637725,0.0079 -0.05536,0.02105 -0.08074,0.08239 -0.178698,0.43195 -0.06279,0.224079 -0.288161,1.030659 -0.500816,1.792399 -0.212654,0.761741 -0.448714,1.604702 -0.524578,1.873248 -0.109837,0.388806 -0.131227,0.496346 -0.105007,0.527938 0.02724,0.03282 0.160768,0.03967 0.773105,0.03967 h 0.74018 l -0.01846,0.09838 c -0.01482,0.07898 -0.511112,1.542432 -1.389059,4.095991 -0.122761,0.357058 -0.08955,0.403097 0.114977,0.159407 z"
         id="path17800" /><path
         style="mix-blend-mode:luminosity;fill:#1495bd;stroke:#f5fe16;stroke-width:0.264583;stroke-dasharray:none;stroke-opacity:0.947236"
         d="M 9.478935,28.867379 C 8.4600719,28.41817 7.7946233,27.984028 7.1879143,27.372706 6.2563303,26.434039 5.8598598,25.37446 5.9089482,23.954631 c 0.06806,-1.968558 0.8975517,-3.380894 2.4729713,-4.210611 0.3520761,-0.185426 0.3428173,-0.171641 0.3428173,-0.510393 0,-0.65869 0.1690594,-1.471171 0.453263,-2.178333 0.3732985,-0.928851 1.0654532,-1.983959 1.6310662,-2.48637 0.909803,-0.808139 2.318399,-1.380269 3.51045,-1.42584 2.021883,-0.07729 4.07585,1.114698 5.26818,3.057318 0.114916,0.187228 0.19984,0.297319 0.233116,0.302198 0.02879,0.0042 0.311515,-0.07814 0.628279,-0.183031 1.069376,-0.354097 1.549733,-0.376106 2.356294,-0.107961 0.911179,0.302927 1.457446,0.771683 1.853232,1.590274 0.341462,0.706234 0.38953,1.418615 0.153308,2.272056 -0.173866,0.628156 -0.18752,0.572093 0.182924,0.751057 1.252952,0.605308 2.082031,1.430055 2.525763,2.512564 0.139594,0.340549 0.166523,0.519177 0.165378,1.097016 -0.002,1.020895 -0.179556,1.876186 -0.493113,2.375625 -0.641899,1.022425 -1.822968,1.839012 -3.078148,2.128219 l -0.26489,0.06103 -7.0209,0.0065 -7.0208993,0.0065 z m 5.011219,-1.58742 c 0.09656,-0.109359 0.371884,-0.433321 0.611823,-0.719917 0.23994,-0.286595 0.949266,-1.125812 1.576281,-1.864926 2.694174,-3.175848 2.660481,-3.133788 2.543546,-3.175203 -0.01885,-0.0067 -0.426122,-0.0059 -0.905037,0.0018 -0.682291,0.01092 -0.870756,0.0066 -0.870756,-0.02008 0,-0.02707 0.798409,-1.449655 1.667091,-2.970379 0.06678,-0.116906 0.114317,-0.231064 0.105637,-0.253685 -0.0216,-0.05628 -3.69627,-0.06301 -3.739768,-0.0068 -0.0146,0.01886 -0.158457,0.509427 -0.319672,1.09016 -0.161216,0.580732 -0.449576,1.609503 -0.6408,2.286157 -0.330902,1.170906 -0.345245,1.232061 -0.29719,1.2672 0.04076,0.0298 0.192595,0.03367 0.78741,0.02006 0.638089,-0.0146 0.736917,-0.01144 0.736917,0.0235 0,0.0222 -0.03587,0.144494 -0.07972,0.271766 -0.04384,0.127272 -0.383234,1.107407 -0.754198,2.178078 -0.370964,1.070669 -0.67448,1.974679 -0.67448,2.008909 0,0.107661 0.07118,0.06922 0.252914,-0.136598 z"
         id="path17798" /><path
         style="fill:#138db4;stroke-width:0.0274254"
         d="m 15.044674,27.603079 c -0.02928,-0.02215 -0.07911,-0.04066 -0.110729,-0.04114 -0.164067,-0.0025 -0.436558,-0.228226 -0.386471,-0.32016 0.0371,-0.0681 0.747443,-0.917281 2.130295,-2.546665 2.684871,-3.163525 2.661028,-3.133767 2.544035,-3.175203 -0.01885,-0.0067 -0.426122,-0.0059 -0.905037,0.0018 -0.682291,0.01092 -0.870756,0.0066 -0.870756,-0.02008 0,-0.02707 0.798409,-1.449655 1.667091,-2.970379 0.06678,-0.116906 0.114317,-0.231064 0.105637,-0.253685 -0.01381,-0.03599 -0.248383,-0.04113 -1.879623,-0.04113 h -1.863841 l -0.0413,0.143983 c -0.02272,0.07919 -0.209787,0.748713 -0.41571,1.487828 -0.422967,1.518138 -0.758456,2.689464 -0.816933,2.85224 l -0.03941,0.109702 -0.01912,-0.178265 c -0.04342,-0.404803 0.02306,-1.405143 0.09969,-1.5001 0.01458,-0.01806 0.03121,-0.0736 0.03696,-0.123414 0.01688,-0.14628 0.06378,-0.347777 0.09417,-0.404554 0.0155,-0.02896 0.02818,-0.08226 0.02818,-0.118451 0,-0.03619 0.008,-0.07378 0.01774,-0.08354 0.04895,-0.04895 0.139499,-0.3538 0.198525,-0.668351 0.01467,-0.07819 0.03932,-0.165783 0.05477,-0.194655 0.01545,-0.02887 0.04059,-0.130073 0.05586,-0.224892 0.01527,-0.09482 0.0467,-0.193317 0.06984,-0.218886 0.02314,-0.02557 0.04207,-0.07962 0.04207,-0.120121 0,-0.0405 0.01148,-0.09506 0.02552,-0.121255 0.01404,-0.02619 0.05252,-0.121671 0.08552,-0.212174 0.033,-0.0905 0.101734,-0.253454 0.152745,-0.36211 0.05101,-0.108657 0.09275,-0.21019 0.09275,-0.225628 0,-0.01544 0.02968,-0.04751 0.06595,-0.07128 0.03627,-0.02377 0.07299,-0.07124 0.08159,-0.1055 0.03114,-0.124086 0.469426,-0.476868 0.667724,-0.537463 0.04183,-0.01278 0.131599,-0.05113 0.199477,-0.08521 0.187081,-0.09394 0.542412,-0.133408 1.357557,-0.150807 0.923833,-0.01972 1.814394,0.03447 1.880767,0.114445 0.01761,0.02122 0.06769,0.03857 0.111304,0.03857 0.04361,0 0.10072,0.01071 0.126912,0.02379 0.209093,0.104466 0.277751,0.152437 0.432988,0.302526 0.09718,0.09395 0.184846,0.20398 0.194821,0.244502 0.01,0.04052 0.03332,0.09836 0.05188,0.128527 0.01856,0.03017 0.04832,0.104216 0.06614,0.164552 0.01782,0.06034 0.04496,0.135602 0.06032,0.167259 0.07976,0.164373 -0.09251,0.972127 -0.265908,1.246799 -0.03714,0.05883 -0.06757,0.122633 -0.06764,0.141788 -5.5e-5,0.01915 -0.03092,0.09554 -0.06856,0.169745 -0.03765,0.07421 -0.06845,0.16834 -0.06845,0.209189 0,0.04085 -0.01851,0.08963 -0.04114,0.108412 -0.05398,0.0448 -0.05701,0.317034 -0.0039,0.348311 0.02049,0.01206 0.05203,0.06737 0.07007,0.122904 0.01805,0.05553 0.06607,0.14298 0.106725,0.194322 0.07562,0.0955 0.193924,0.340666 0.248862,0.515702 0.03636,0.115847 0.04156,0.701187 0.0064,0.722904 -0.01337,0.0083 -0.03249,0.05862 -0.04249,0.111909 -0.05392,0.287419 -0.450641,0.898753 -0.87171,1.343276 -0.05701,0.06018 -0.103647,0.117152 -0.103647,0.126602 0,0.0095 -0.06138,0.08363 -0.136392,0.164835 -0.07501,0.08121 -0.136722,0.157551 -0.137127,0.169651 -4.03e-4,0.0121 -0.08713,0.113273 -0.192712,0.224828 -0.105588,0.111556 -0.192161,0.2189 -0.192385,0.238542 -2.2e-4,0.01964 -0.09278,0.12637 -0.205691,0.237173 -0.112906,0.110803 -0.205283,0.216127 -0.205283,0.234053 0,0.01792 -0.06832,0.100048 -0.151831,0.182494 -0.08351,0.08245 -0.184864,0.199269 -0.225239,0.259605 -0.04038,0.06034 -0.124244,0.159067 -0.186375,0.219403 -0.06213,0.06034 -0.154803,0.165238 -0.205936,0.233116 -0.05113,0.06788 -0.220658,0.25917 -0.376722,0.425093 -0.156065,0.165924 -0.309793,0.347825 -0.341619,0.404226 -0.03183,0.0564 -0.07856,0.109116 -0.103855,0.117144 -0.02529,0.008 -0.123857,0.100723 -0.219028,0.205989 -0.09517,0.105265 -0.186571,0.191392 -0.203112,0.191392 -0.01654,0 -0.07931,0.04296 -0.139476,0.09546 -0.06017,0.0525 -0.129971,0.0957 -0.155111,0.09599 -0.02514,2.88e-4 -0.04982,0.01248 -0.05485,0.0271 -0.005,0.01461 -0.113749,0.0643 -0.241601,0.110416 -0.127853,0.04612 -0.244479,0.09586 -0.25917,0.110556 -0.04259,0.04259 -0.354252,0.03241 -0.415024,-0.01356 z m -0.711242,-0.663096 c 0.0094,-0.04889 4.77e-4,-0.126162 -0.02062,-0.178265 -0.05522,-0.136374 -0.0096,-0.82087 0.06416,-0.962358 0.01365,-0.02619 0.02482,-0.07723 0.02482,-0.113423 0,-0.03619 0.01844,-0.10115 0.04097,-0.144355 0.02253,-0.0432 0.04105,-0.104812 0.04114,-0.136904 8.2e-5,-0.03209 0.01868,-0.07371 0.04131,-0.09249 0.02263,-0.01878 0.04114,-0.06919 0.04114,-0.11203 0,-0.04284 0.02395,-0.143145 0.05323,-0.222902 0.02928,-0.07976 0.07093,-0.232571 0.09257,-0.339588 0.02163,-0.107017 0.06162,-0.228582 0.08885,-0.270146 0.07228,-0.110314 0.05982,-0.625375 -0.01751,-0.723684 -0.02892,-0.03677 -0.05258,-0.07514 -0.05258,-0.08527 0,-0.01013 -0.0551,-0.07759 -0.122444,-0.149906 -0.06734,-0.07232 -0.130047,-0.15544 -0.13934,-0.18472 -0.0093,-0.02928 -0.06302,-0.100292 -0.119398,-0.157807 l -0.102501,-0.104572 0.344686,-0.01758 c 0.631571,-0.03221 1.153736,-0.02286 1.153736,0.02066 0,0.02116 -0.07504,0.252557 -0.166756,0.514227 -0.09172,0.261669 -0.343609,0.987932 -0.559762,1.613916 -0.47848,1.385688 -0.606448,1.744284 -0.660622,1.851214 l -0.04168,0.08228 z"
         id="path17796" /><path
         style="fill:#107393;stroke-width:0.0274254"
         d="m 15.567371,26.466057 c -0.04525,-0.01001 -0.122662,-0.03701 -0.172022,-0.05999 l -0.08975,-0.04179 0.07811,-0.107806 c 0.129974,-0.179393 0.572664,-0.711527 1.527064,-1.835607 1.825229,-2.149729 2.372735,-2.809635 2.372735,-2.859844 0,-0.05155 -0.05595,-0.05387 -0.953033,-0.03943 -0.695102,0.01118 -0.884468,0.0069 -0.884468,-0.01992 0,-0.03152 1.206078,-2.178687 1.609286,-2.864999 0.09665,-0.164515 0.171953,-0.318783 0.167334,-0.342817 -0.0075,-0.03921 -0.175071,-0.04511 -1.630731,-0.05741 -0.892283,-0.0075 -1.63158,-0.02297 -1.64288,-0.03428 -0.0113,-0.01131 0.0023,-0.02057 0.03025,-0.02057 0.02794,0 0.108784,-0.04889 0.179653,-0.10865 0.175216,-0.147745 0.365405,-0.215528 0.779715,-0.277891 0.219533,-0.03304 1.663566,-0.04235 1.714217,-0.01105 0.01378,0.0085 0.102695,0.0264 0.197585,0.03973 0.411084,0.05776 0.661768,0.211924 0.808753,0.49735 0.08553,0.166082 0.08999,0.188913 0.08001,0.409016 -0.01518,0.334772 -0.04479,0.445388 -0.204073,0.762427 -0.07806,0.155366 -0.141921,0.298 -0.141921,0.316964 0,0.01897 -0.04189,0.117749 -0.0931,0.21952 -0.0512,0.101772 -0.101283,0.239617 -0.111286,0.306324 -0.01,0.06671 -0.02982,0.128473 -0.04403,0.137257 -0.03433,0.02122 -0.03316,0.1421 0.0016,0.163573 0.01508,0.0093 0.02743,0.04896 0.02743,0.08809 0,0.08386 0.140501,0.392598 0.201829,0.443495 0.02344,0.01945 0.09535,0.141323 0.159805,0.270828 0.109192,0.219383 0.116923,0.249693 0.113206,0.443825 -0.0038,0.198447 -0.05692,0.399078 -0.131132,0.495269 -0.01746,0.02263 -0.05482,0.09667 -0.08303,0.164552 -0.02821,0.06788 -0.0799,0.154943 -0.114847,0.193478 -0.03495,0.03854 -0.06355,0.08051 -0.06355,0.09327 0,0.01276 -0.05,0.07996 -0.111104,0.149339 -0.171209,0.194379 -0.436211,0.511814 -0.592282,0.709469 -0.07764,0.09833 -0.179458,0.208747 -0.22626,0.245374 -0.0468,0.03663 -0.08509,0.07841 -0.08509,0.09286 0,0.02313 -0.171383,0.235901 -0.351181,0.435992 -0.159934,0.177986 -0.499006,0.57318 -0.499006,0.581601 0,0.03853 -0.810394,0.867167 -1.00295,1.025526 -0.05319,0.04374 -0.136224,0.111654 -0.18452,0.15091 -0.0759,0.06169 -0.514992,0.277961 -0.543782,0.267832 -0.0056,-0.002 -0.04729,-0.0118 -0.09254,-0.02181 z m -0.04114,-3.009993 c 0,-0.142277 -0.223635,-0.46961 -0.327185,-0.478896 -0.07336,-0.0066 0.250484,-0.04541 0.402605,-0.04828 0.176178,-0.0033 0.17639,-0.0018 0.04512,0.326203 -0.10009,0.250074 -0.120536,0.284163 -0.120536,0.20097 z"
         id="path17794" /><path
         style="fill:#0e5d76;stroke-width:0.0274254"
         d="m 16.514028,24.963478 c 7.79e-4,-0.03484 1.045784,-1.290222 2.0134,-2.418735 0.310725,-0.362393 0.387569,-0.438306 0.39472,-0.389935 0.0049,0.03304 -0.01672,0.112931 -0.048,0.177547 -0.03128,0.06462 -0.05687,0.1321 -0.05687,0.149963 0,0.01786 -0.0216,0.05421 -0.04799,0.08076 -0.0264,0.02656 -0.0969,0.11603 -0.156665,0.198834 -0.101797,0.141031 -0.278255,0.361929 -0.492697,0.616783 -0.05077,0.06034 -0.127522,0.152335 -0.170563,0.204443 -0.04304,0.05211 -0.170818,0.192222 -0.283947,0.311365 -0.11313,0.119143 -0.211861,0.230778 -0.219403,0.248076 -0.02302,0.05279 -0.584148,0.590919 -0.671922,0.644376 -0.04525,0.02756 -0.09977,0.0713 -0.121159,0.09719 -0.04667,0.05651 -0.139577,0.10957 -0.138902,0.07933 z m 0.945683,-3.46344 c -0.02153,-0.03484 1.479965,-2.645966 1.559476,-2.711954 0.05466,-0.04536 0.06156,0.350802 0.0079,0.456458 -0.02099,0.04136 -0.06596,0.155417 -0.09993,0.253463 -0.03398,0.09805 -0.07732,0.196777 -0.09632,0.219403 -0.019,0.02263 -0.04397,0.07199 -0.0555,0.109702 -0.01153,0.03771 -0.04791,0.111758 -0.08085,0.164552 -0.126203,0.202275 -0.211195,0.53296 -0.199655,0.776822 0.01158,0.244602 0.04248,0.342369 0.176614,0.558679 l 0.08836,0.142496 -0.115266,0.01409 c -0.205406,0.02511 -1.171213,0.03839 -1.184869,0.01629 z"
         id="path17792" /></g><text
       xml:space="preserve"
       transform="scale(0.26458333)"
       id="text13664"
       style="font-style:normal;font-variant:normal;font-weight:normal;font-stretch:normal;font-size:37.3333px;font-family:'Bauhaus 93';-inkscape-font-specification:'Bauhaus 93, Normal';font-variant-ligatures:normal;font-variant-caps:normal;font-variant-numeric:normal;font-variant-east-asian:normal;white-space:pre;shape-inside:url(#rect13666);fill:#098cff;fill-opacity:1;stroke:#000000;stroke-width:1;stroke-linecap:butt;stroke-linejoin:bevel;stroke-dasharray:none;stroke-dashoffset:0;stroke-opacity:0.947236;paint-order:normal" /></g><script
     id="mesh_polyfill"
     type="text/javascript">
!function(){const t=&quot;http://www.w3.org/2000/svg&quot;,e=&quot;http://www.w3.org/1999/xlink&quot;,s=&quot;http://www.w3.org/1999/xhtml&quot;,r=2;if(document.createElementNS(t,&quot;meshgradient&quot;).x)return;const n=(t,e,s,r)=&gt;{let n=new x(.5*(e.x+s.x),.5*(e.y+s.y)),o=new x(.5*(t.x+e.x),.5*(t.y+e.y)),i=new x(.5*(s.x+r.x),.5*(s.y+r.y)),a=new x(.5*(n.x+o.x),.5*(n.y+o.y)),h=new x(.5*(n.x+i.x),.5*(n.y+i.y)),l=new x(.5*(a.x+h.x),.5*(a.y+h.y));return[[t,o,a,l],[l,h,i,r]]},o=t=&gt;{let e=t[0].distSquared(t[1]),s=t[2].distSquared(t[3]),r=.25*t[0].distSquared(t[2]),n=.25*t[1].distSquared(t[3]),o=e&gt;s?e:s,i=r&gt;n?r:n;return 18*(o&gt;i?o:i)},i=(t,e)=&gt;Math.sqrt(t.distSquared(e)),a=(t,e)=&gt;t.scale(2/3).add(e.scale(1/3)),h=t=&gt;{let e,s,r,n,o,i,a,h=new g;return t.match(/(\w+\(\s*[^)]+\))+/g).forEach(t=&gt;{let l=t.match(/[\w.-]+/g),d=l.shift();switch(d){case&quot;translate&quot;:2===l.length?e=new g(1,0,0,1,l[0],l[1]):(console.error(&quot;mesh.js: translate does not have 2 arguments!&quot;),e=new g(1,0,0,1,0,0)),h=h.append(e);break;case&quot;scale&quot;:1===l.length?s=new g(l[0],0,0,l[0],0,0):2===l.length?s=new g(l[0],0,0,l[1],0,0):(console.error(&quot;mesh.js: scale does not have 1 or 2 arguments!&quot;),s=new g(1,0,0,1,0,0)),h=h.append(s);break;case&quot;rotate&quot;:if(3===l.length&amp;&amp;(e=new g(1,0,0,1,l[1],l[2]),h=h.append(e)),l[0]){r=l[0]*Math.PI/180;let t=Math.cos(r),e=Math.sin(r);Math.abs(t)&lt;1e-16&amp;&amp;(t=0),Math.abs(e)&lt;1e-16&amp;&amp;(e=0),a=new g(t,e,-e,t,0,0),h=h.append(a)}else console.error(&quot;math.js: No argument to rotate transform!&quot;);3===l.length&amp;&amp;(e=new g(1,0,0,1,-l[1],-l[2]),h=h.append(e));break;case&quot;skewX&quot;:l[0]?(r=l[0]*Math.PI/180,n=Math.tan(r),o=new g(1,0,n,1,0,0),h=h.append(o)):console.error(&quot;math.js: No argument to skewX transform!&quot;);break;case&quot;skewY&quot;:l[0]?(r=l[0]*Math.PI/180,n=Math.tan(r),i=new g(1,n,0,1,0,0),h=h.append(i)):console.error(&quot;math.js: No argument to skewY transform!&quot;);break;case&quot;matrix&quot;:6===l.length?h=h.append(new g(...l)):console.error(&quot;math.js: Incorrect number of arguments for matrix!&quot;);break;default:console.error(&quot;mesh.js: Unhandled transform type: &quot;+d)}}),h},l=t=&gt;{let e=[],s=t.split(/[ ,]+/);for(let t=0,r=s.length-1;t&lt;r;t+=2)e.push(new x(parseFloat(s[t]),parseFloat(s[t+1])));return e},d=(t,e)=&gt;{for(let s in e)t.setAttribute(s,e[s])},c=(t,e,s,r,n)=&gt;{let o,i,a=[0,0,0,0];for(let h=0;h&lt;3;++h)e[h]&lt;t[h]&amp;&amp;e[h]&lt;s[h]||t[h]&lt;e[h]&amp;&amp;s[h]&lt;e[h]?a[h]=0:(a[h]=.5*((e[h]-t[h])/r+(s[h]-e[h])/n),o=Math.abs(3*(e[h]-t[h])/r),i=Math.abs(3*(s[h]-e[h])/n),a[h]&gt;o?a[h]=o:a[h]&gt;i&amp;&amp;(a[h]=i));return a},u=[[1,0,0,0,0,0,0,0,0,0,0,0,0,0,0,0],[0,0,0,0,1,0,0,0,0,0,0,0,0,0,0,0],[-3,3,0,0,-2,-1,0,0,0,0,0,0,0,0,0,0],[2,-2,0,0,1,1,0,0,0,0,0,0,0,0,0,0],[0,0,0,0,0,0,0,0,1,0,0,0,0,0,0,0],[0,0,0,0,0,0,0,0,0,0,0,0,1,0,0,0],[0,0,0,0,0,0,0,0,-3,3,0,0,-2,-1,0,0],[0,0,0,0,0,0,0,0,2,-2,0,0,1,1,0,0],[-3,0,3,0,0,0,0,0,-2,0,-1,0,0,0,0,0],[0,0,0,0,-3,0,3,0,0,0,0,0,-2,0,-1,0],[9,-9,-9,9,6,3,-6,-3,6,-6,3,-3,4,2,2,1],[-6,6,6,-6,-3,-3,3,3,-4,4,-2,2,-2,-2,-1,-1],[2,0,-2,0,0,0,0,0,1,0,1,0,0,0,0,0],[0,0,0,0,2,0,-2,0,0,0,0,0,1,0,1,0],[-6,6,6,-6,-4,-2,4,2,-3,3,-3,3,-2,-1,-2,-1],[4,-4,-4,4,2,2,-2,-2,2,-2,2,-2,1,1,1,1]],f=t=&gt;{let e=[];for(let s=0;s&lt;16;++s){e[s]=0;for(let r=0;r&lt;16;++r)e[s]+=u[s][r]*t[r]}return e},p=(t,e,s)=&gt;{const r=e*e,n=s*s,o=e*e*e,i=s*s*s;return t[0]+t[1]*e+t[2]*r+t[3]*o+t[4]*s+t[5]*s*e+t[6]*s*r+t[7]*s*o+t[8]*n+t[9]*n*e+t[10]*n*r+t[11]*n*o+t[12]*i+t[13]*i*e+t[14]*i*r+t[15]*i*o},y=t=&gt;{let e=[],s=[],r=[];for(let s=0;s&lt;4;++s)e[s]=[],e[s][0]=n(t[0][s],t[1][s],t[2][s],t[3][s]),e[s][1]=[],e[s][1].push(...n(...e[s][0][0])),e[s][1].push(...n(...e[s][0][1])),e[s][2]=[],e[s][2].push(...n(...e[s][1][0])),e[s][2].push(...n(...e[s][1][1])),e[s][2].push(...n(...e[s][1][2])),e[s][2].push(...n(...e[s][1][3]));for(let t=0;t&lt;8;++t){s[t]=[];for(let r=0;r&lt;4;++r)s[t][r]=[],s[t][r][0]=n(e[0][2][t][r],e[1][2][t][r],e[2][2][t][r],e[3][2][t][r]),s[t][r][1]=[],s[t][r][1].push(...n(...s[t][r][0][0])),s[t][r][1].push(...n(...s[t][r][0][1])),s[t][r][2]=[],s[t][r][2].push(...n(...s[t][r][1][0])),s[t][r][2].push(...n(...s[t][r][1][1])),s[t][r][2].push(...n(...s[t][r][1][2])),s[t][r][2].push(...n(...s[t][r][1][3]))}for(let t=0;t&lt;8;++t){r[t]=[];for(let e=0;e&lt;8;++e)r[t][e]=[],r[t][e][0]=s[t][0][2][e],r[t][e][1]=s[t][1][2][e],r[t][e][2]=s[t][2][2][e],r[t][e][3]=s[t][3][2][e]}return r};class x{constructor(t,e){this.x=t||0,this.y=e||0}toString(){return`(x=${this.x}, y=${this.y})`}clone(){return new x(this.x,this.y)}add(t){return new x(this.x+t.x,this.y+t.y)}scale(t){return void 0===t.x?new x(this.x*t,this.y*t):new x(this.x*t.x,this.y*t.y)}distSquared(t){let e=this.x-t.x,s=this.y-t.y;return e*e+s*s}transform(t){let e=this.x*t.a+this.y*t.c+t.e,s=this.x*t.b+this.y*t.d+t.f;return new x(e,s)}}class g{constructor(t,e,s,r,n,o){void 0===t?(this.a=1,this.b=0,this.c=0,this.d=1,this.e=0,this.f=0):(this.a=t,this.b=e,this.c=s,this.d=r,this.e=n,this.f=o)}toString(){return`affine: ${this.a} ${this.c} ${this.e} \n       ${this.b} ${this.d} ${this.f}`}append(t){t instanceof g||console.error(&quot;mesh.js: argument to Affine.append is not affine!&quot;);let e=this.a*t.a+this.c*t.b,s=this.b*t.a+this.d*t.b,r=this.a*t.c+this.c*t.d,n=this.b*t.c+this.d*t.d,o=this.a*t.e+this.c*t.f+this.e,i=this.b*t.e+this.d*t.f+this.f;return new g(e,s,r,n,o,i)}}class w{constructor(t,e){this.nodes=t,this.colors=e}paintCurve(t,e){if(o(this.nodes)&gt;r){const s=n(...this.nodes);let r=[[],[]],o=[[],[]];for(let t=0;t&lt;4;++t)r[0][t]=this.colors[0][t],r[1][t]=(this.colors[0][t]+this.colors[1][t])/2,o[0][t]=r[1][t],o[1][t]=this.colors[1][t];let i=new w(s[0],r),a=new w(s[1],o);i.paintCurve(t,e),a.paintCurve(t,e)}else{let s=Math.round(this.nodes[0].x);if(s&gt;=0&amp;&amp;s&lt;e){let r=4*(~~this.nodes[0].y*e+s);t[r]=Math.round(this.colors[0][0]),t[r+1]=Math.round(this.colors[0][1]),t[r+2]=Math.round(this.colors[0][2]),t[r+3]=Math.round(this.colors[0][3])}}}}class m{constructor(t,e){this.nodes=t,this.colors=e}split(){let t=[[],[],[],[]],e=[[],[],[],[]],s=[[[],[]],[[],[]]],r=[[[],[]],[[],[]]];for(let s=0;s&lt;4;++s){const r=n(this.nodes[0][s],this.nodes[1][s],this.nodes[2][s],this.nodes[3][s]);t[0][s]=r[0][0],t[1][s]=r[0][1],t[2][s]=r[0][2],t[3][s]=r[0][3],e[0][s]=r[1][0],e[1][s]=r[1][1],e[2][s]=r[1][2],e[3][s]=r[1][3]}for(let t=0;t&lt;4;++t)s[0][0][t]=this.colors[0][0][t],s[0][1][t]=this.colors[0][1][t],s[1][0][t]=(this.colors[0][0][t]+this.colors[1][0][t])/2,s[1][1][t]=(this.colors[0][1][t]+this.colors[1][1][t])/2,r[0][0][t]=s[1][0][t],r[0][1][t]=s[1][1][t],r[1][0][t]=this.colors[1][0][t],r[1][1][t]=this.colors[1][1][t];return[new m(t,s),new m(e,r)]}paint(t,e){let s,n=!1;for(let t=0;t&lt;4;++t)if((s=o([this.nodes[0][t],this.nodes[1][t],this.nodes[2][t],this.nodes[3][t]]))&gt;r){n=!0;break}if(n){let s=this.split();s[0].paint(t,e),s[1].paint(t,e)}else{new w([...this.nodes[0]],[...this.colors[0]]).paintCurve(t,e)}}}class b{constructor(t){this.readMesh(t),this.type=t.getAttribute(&quot;type&quot;)||&quot;bilinear&quot;}readMesh(t){let e=[[]],s=[[]],r=Number(t.getAttribute(&quot;x&quot;)),n=Number(t.getAttribute(&quot;y&quot;));e[0][0]=new x(r,n);let o=t.children;for(let t=0,r=o.length;t&lt;r;++t){e[3*t+1]=[],e[3*t+2]=[],e[3*t+3]=[],s[t+1]=[];let r=o[t].children;for(let n=0,o=r.length;n&lt;o;++n){let o=r[n].children;for(let r=0,i=o.length;r&lt;i;++r){let i=r;0!==t&amp;&amp;++i;let h,d=o[r].getAttribute(&quot;path&quot;),c=&quot;l&quot;;null!=d&amp;&amp;(c=(h=d.match(/\s*([lLcC])\s*(.*)/))[1]);let u=l(h[2]);switch(c){case&quot;l&quot;:0===i?(e[3*t][3*n+3]=u[0].add(e[3*t][3*n]),e[3*t][3*n+1]=a(e[3*t][3*n],e[3*t][3*n+3]),e[3*t][3*n+2]=a(e[3*t][3*n+3],e[3*t][3*n])):1===i?(e[3*t+3][3*n+3]=u[0].add(e[3*t][3*n+3]),e[3*t+1][3*n+3]=a(e[3*t][3*n+3],e[3*t+3][3*n+3]),e[3*t+2][3*n+3]=a(e[3*t+3][3*n+3],e[3*t][3*n+3])):2===i?(0===n&amp;&amp;(e[3*t+3][3*n+0]=u[0].add(e[3*t+3][3*n+3])),e[3*t+3][3*n+1]=a(e[3*t+3][3*n],e[3*t+3][3*n+3]),e[3*t+3][3*n+2]=a(e[3*t+3][3*n+3],e[3*t+3][3*n])):(e[3*t+1][3*n]=a(e[3*t][3*n],e[3*t+3][3*n]),e[3*t+2][3*n]=a(e[3*t+3][3*n],e[3*t][3*n]));break;case&quot;L&quot;:0===i?(e[3*t][3*n+3]=u[0],e[3*t][3*n+1]=a(e[3*t][3*n],e[3*t][3*n+3]),e[3*t][3*n+2]=a(e[3*t][3*n+3],e[3*t][3*n])):1===i?(e[3*t+3][3*n+3]=u[0],e[3*t+1][3*n+3]=a(e[3*t][3*n+3],e[3*t+3][3*n+3]),e[3*t+2][3*n+3]=a(e[3*t+3][3*n+3],e[3*t][3*n+3])):2===i?(0===n&amp;&amp;(e[3*t+3][3*n+0]=u[0]),e[3*t+3][3*n+1]=a(e[3*t+3][3*n],e[3*t+3][3*n+3]),e[3*t+3][3*n+2]=a(e[3*t+3][3*n+3],e[3*t+3][3*n])):(e[3*t+1][3*n]=a(e[3*t][3*n],e[3*t+3][3*n]),e[3*t+2][3*n]=a(e[3*t+3][3*n],e[3*t][3*n]));break;case&quot;c&quot;:0===i?(e[3*t][3*n+1]=u[0].add(e[3*t][3*n]),e[3*t][3*n+2]=u[1].add(e[3*t][3*n]),e[3*t][3*n+3]=u[2].add(e[3*t][3*n])):1===i?(e[3*t+1][3*n+3]=u[0].add(e[3*t][3*n+3]),e[3*t+2][3*n+3]=u[1].add(e[3*t][3*n+3]),e[3*t+3][3*n+3]=u[2].add(e[3*t][3*n+3])):2===i?(e[3*t+3][3*n+2]=u[0].add(e[3*t+3][3*n+3]),e[3*t+3][3*n+1]=u[1].add(e[3*t+3][3*n+3]),0===n&amp;&amp;(e[3*t+3][3*n+0]=u[2].add(e[3*t+3][3*n+3]))):(e[3*t+2][3*n]=u[0].add(e[3*t+3][3*n]),e[3*t+1][3*n]=u[1].add(e[3*t+3][3*n]));break;case&quot;C&quot;:0===i?(e[3*t][3*n+1]=u[0],e[3*t][3*n+2]=u[1],e[3*t][3*n+3]=u[2]):1===i?(e[3*t+1][3*n+3]=u[0],e[3*t+2][3*n+3]=u[1],e[3*t+3][3*n+3]=u[2]):2===i?(e[3*t+3][3*n+2]=u[0],e[3*t+3][3*n+1]=u[1],0===n&amp;&amp;(e[3*t+3][3*n+0]=u[2])):(e[3*t+2][3*n]=u[0],e[3*t+1][3*n]=u[1]);break;default:console.error(&quot;mesh.js: &quot;+c+&quot; invalid path type.&quot;)}if(0===t&amp;&amp;0===n||r&gt;0){let e=window.getComputedStyle(o[r]).stopColor.match(/^rgb\s*\(\s*(\d+)\s*,\s*(\d+)\s*,\s*(\d+)\s*\)$/i),a=window.getComputedStyle(o[r]).stopOpacity,h=255;a&amp;&amp;(h=Math.floor(255*a)),e&amp;&amp;(0===i?(s[t][n]=[],s[t][n][0]=Math.floor(e[1]),s[t][n][1]=Math.floor(e[2]),s[t][n][2]=Math.floor(e[3]),s[t][n][3]=h):1===i?(s[t][n+1]=[],s[t][n+1][0]=Math.floor(e[1]),s[t][n+1][1]=Math.floor(e[2]),s[t][n+1][2]=Math.floor(e[3]),s[t][n+1][3]=h):2===i?(s[t+1][n+1]=[],s[t+1][n+1][0]=Math.floor(e[1]),s[t+1][n+1][1]=Math.floor(e[2]),s[t+1][n+1][2]=Math.floor(e[3]),s[t+1][n+1][3]=h):3===i&amp;&amp;(s[t+1][n]=[],s[t+1][n][0]=Math.floor(e[1]),s[t+1][n][1]=Math.floor(e[2]),s[t+1][n][2]=Math.floor(e[3]),s[t+1][n][3]=h))}}e[3*t+1][3*n+1]=new x,e[3*t+1][3*n+2]=new x,e[3*t+2][3*n+1]=new x,e[3*t+2][3*n+2]=new x,e[3*t+1][3*n+1].x=(-4*e[3*t][3*n].x+6*(e[3*t][3*n+1].x+e[3*t+1][3*n].x)+-2*(e[3*t][3*n+3].x+e[3*t+3][3*n].x)+3*(e[3*t+3][3*n+1].x+e[3*t+1][3*n+3].x)+-1*e[3*t+3][3*n+3].x)/9,e[3*t+1][3*n+2].x=(-4*e[3*t][3*n+3].x+6*(e[3*t][3*n+2].x+e[3*t+1][3*n+3].x)+-2*(e[3*t][3*n].x+e[3*t+3][3*n+3].x)+3*(e[3*t+3][3*n+2].x+e[3*t+1][3*n].x)+-1*e[3*t+3][3*n].x)/9,e[3*t+2][3*n+1].x=(-4*e[3*t+3][3*n].x+6*(e[3*t+3][3*n+1].x+e[3*t+2][3*n].x)+-2*(e[3*t+3][3*n+3].x+e[3*t][3*n].x)+3*(e[3*t][3*n+1].x+e[3*t+2][3*n+3].x)+-1*e[3*t][3*n+3].x)/9,e[3*t+2][3*n+2].x=(-4*e[3*t+3][3*n+3].x+6*(e[3*t+3][3*n+2].x+e[3*t+2][3*n+3].x)+-2*(e[3*t+3][3*n].x+e[3*t][3*n+3].x)+3*(e[3*t][3*n+2].x+e[3*t+2][3*n].x)+-1*e[3*t][3*n].x)/9,e[3*t+1][3*n+1].y=(-4*e[3*t][3*n].y+6*(e[3*t][3*n+1].y+e[3*t+1][3*n].y)+-2*(e[3*t][3*n+3].y+e[3*t+3][3*n].y)+3*(e[3*t+3][3*n+1].y+e[3*t+1][3*n+3].y)+-1*e[3*t+3][3*n+3].y)/9,e[3*t+1][3*n+2].y=(-4*e[3*t][3*n+3].y+6*(e[3*t][3*n+2].y+e[3*t+1][3*n+3].y)+-2*(e[3*t][3*n].y+e[3*t+3][3*n+3].y)+3*(e[3*t+3][3*n+2].y+e[3*t+1][3*n].y)+-1*e[3*t+3][3*n].y)/9,e[3*t+2][3*n+1].y=(-4*e[3*t+3][3*n].y+6*(e[3*t+3][3*n+1].y+e[3*t+2][3*n].y)+-2*(e[3*t+3][3*n+3].y+e[3*t][3*n].y)+3*(e[3*t][3*n+1].y+e[3*t+2][3*n+3].y)+-1*e[3*t][3*n+3].y)/9,e[3*t+2][3*n+2].y=(-4*e[3*t+3][3*n+3].y+6*(e[3*t+3][3*n+2].y+e[3*t+2][3*n+3].y)+-2*(e[3*t+3][3*n].y+e[3*t][3*n+3].y)+3*(e[3*t][3*n+2].y+e[3*t+2][3*n].y)+-1*e[3*t][3*n].y)/9}}this.nodes=e,this.colors=s}paintMesh(t,e){let s=(this.nodes.length-1)/3,r=(this.nodes[0].length-1)/3;if(&quot;bilinear&quot;===this.type||s&lt;2||r&lt;2){let n;for(let o=0;o&lt;s;++o)for(let s=0;s&lt;r;++s){let r=[];for(let t=3*o,e=3*o+4;t&lt;e;++t)r.push(this.nodes[t].slice(3*s,3*s+4));let i=[];i.push(this.colors[o].slice(s,s+2)),i.push(this.colors[o+1].slice(s,s+2)),(n=new m(r,i)).paint(t,e)}}else{let n,o,a,h,l,d,u;const x=s,g=r;s++,r++;let w=new Array(s);for(let t=0;t&lt;s;++t){w[t]=new Array(r);for(let e=0;e&lt;r;++e)w[t][e]=[],w[t][e][0]=this.nodes[3*t][3*e],w[t][e][1]=this.colors[t][e]}for(let t=0;t&lt;s;++t)for(let e=0;e&lt;r;++e)0!==t&amp;&amp;t!==x&amp;&amp;(n=i(w[t-1][e][0],w[t][e][0]),o=i(w[t+1][e][0],w[t][e][0]),w[t][e][2]=c(w[t-1][e][1],w[t][e][1],w[t+1][e][1],n,o)),0!==e&amp;&amp;e!==g&amp;&amp;(n=i(w[t][e-1][0],w[t][e][0]),o=i(w[t][e+1][0],w[t][e][0]),w[t][e][3]=c(w[t][e-1][1],w[t][e][1],w[t][e+1][1],n,o));for(let t=0;t&lt;r;++t){w[0][t][2]=[],w[x][t][2]=[];for(let e=0;e&lt;4;++e)n=i(w[1][t][0],w[0][t][0]),o=i(w[x][t][0],w[x-1][t][0]),w[0][t][2][e]=n&gt;0?2*(w[1][t][1][e]-w[0][t][1][e])/n-w[1][t][2][e]:0,w[x][t][2][e]=o&gt;0?2*(w[x][t][1][e]-w[x-1][t][1][e])/o-w[x-1][t][2][e]:0}for(let t=0;t&lt;s;++t){w[t][0][3]=[],w[t][g][3]=[];for(let e=0;e&lt;4;++e)n=i(w[t][1][0],w[t][0][0]),o=i(w[t][g][0],w[t][g-1][0]),w[t][0][3][e]=n&gt;0?2*(w[t][1][1][e]-w[t][0][1][e])/n-w[t][1][3][e]:0,w[t][g][3][e]=o&gt;0?2*(w[t][g][1][e]-w[t][g-1][1][e])/o-w[t][g-1][3][e]:0}for(let s=0;s&lt;x;++s)for(let r=0;r&lt;g;++r){let n=i(w[s][r][0],w[s+1][r][0]),o=i(w[s][r+1][0],w[s+1][r+1][0]),c=i(w[s][r][0],w[s][r+1][0]),x=i(w[s+1][r][0],w[s+1][r+1][0]),g=[[],[],[],[]];for(let t=0;t&lt;4;++t){(d=[])[0]=w[s][r][1][t],d[1]=w[s+1][r][1][t],d[2]=w[s][r+1][1][t],d[3]=w[s+1][r+1][1][t],d[4]=w[s][r][2][t]*n,d[5]=w[s+1][r][2][t]*n,d[6]=w[s][r+1][2][t]*o,d[7]=w[s+1][r+1][2][t]*o,d[8]=w[s][r][3][t]*c,d[9]=w[s+1][r][3][t]*x,d[10]=w[s][r+1][3][t]*c,d[11]=w[s+1][r+1][3][t]*x,d[12]=0,d[13]=0,d[14]=0,d[15]=0,u=f(d);for(let e=0;e&lt;9;++e){g[t][e]=[];for(let s=0;s&lt;9;++s)g[t][e][s]=p(u,e/8,s/8),g[t][e][s]&gt;255?g[t][e][s]=255:g[t][e][s]&lt;0&amp;&amp;(g[t][e][s]=0)}}h=[];for(let t=3*s,e=3*s+4;t&lt;e;++t)h.push(this.nodes[t].slice(3*r,3*r+4));l=y(h);for(let s=0;s&lt;8;++s)for(let r=0;r&lt;8;++r)(a=new m(l[s][r],[[[g[0][s][r],g[1][s][r],g[2][s][r],g[3][s][r]],[g[0][s][r+1],g[1][s][r+1],g[2][s][r+1],g[3][s][r+1]]],[[g[0][s+1][r],g[1][s+1][r],g[2][s+1][r],g[3][s+1][r]],[g[0][s+1][r+1],g[1][s+1][r+1],g[2][s+1][r+1],g[3][s+1][r+1]]]])).paint(t,e)}}}transform(t){if(t instanceof x)for(let e=0,s=this.nodes.length;e&lt;s;++e)for(let s=0,r=this.nodes[0].length;s&lt;r;++s)this.nodes[e][s]=this.nodes[e][s].add(t);else if(t instanceof g)for(let e=0,s=this.nodes.length;e&lt;s;++e)for(let s=0,r=this.nodes[0].length;s&lt;r;++s)this.nodes[e][s]=this.nodes[e][s].transform(t)}scale(t){for(let e=0,s=this.nodes.length;e&lt;s;++e)for(let s=0,r=this.nodes[0].length;s&lt;r;++s)this.nodes[e][s]=this.nodes[e][s].scale(t)}}document.querySelectorAll(&quot;rect,circle,ellipse,path,text&quot;).forEach((r,n)=&gt;{let o=r.getAttribute(&quot;id&quot;);o||(o=&quot;patchjs_shape&quot;+n,r.setAttribute(&quot;id&quot;,o));const i=r.style.fill.match(/^url\(\s*&quot;?\s*#([^\s&quot;]+)&quot;?\s*\)/),a=r.style.stroke.match(/^url\(\s*&quot;?\s*#([^\s&quot;]+)&quot;?\s*\)/);if(i&amp;&amp;i[1]){const a=document.getElementById(i[1]);if(a&amp;&amp;&quot;meshgradient&quot;===a.nodeName){const i=r.getBBox();let l=document.createElementNS(s,&quot;canvas&quot;);d(l,{width:i.width,height:i.height});const c=l.getContext(&quot;2d&quot;);let u=c.createImageData(i.width,i.height);const f=new b(a);&quot;objectBoundingBox&quot;===a.getAttribute(&quot;gradientUnits&quot;)&amp;&amp;f.scale(new x(i.width,i.height));const p=a.getAttribute(&quot;gradientTransform&quot;);null!=p&amp;&amp;f.transform(h(p)),&quot;userSpaceOnUse&quot;===a.getAttribute(&quot;gradientUnits&quot;)&amp;&amp;f.transform(new x(-i.x,-i.y)),f.paintMesh(u.data,l.width),c.putImageData(u,0,0);const y=document.createElementNS(t,&quot;image&quot;);d(y,{width:i.width,height:i.height,x:i.x,y:i.y});let g=l.toDataURL();y.setAttributeNS(e,&quot;xlink:href&quot;,g),r.parentNode.insertBefore(y,r),r.style.fill=&quot;none&quot;;const w=document.createElementNS(t,&quot;use&quot;);w.setAttributeNS(e,&quot;xlink:href&quot;,&quot;#&quot;+o);const m=&quot;patchjs_clip&quot;+n,M=document.createElementNS(t,&quot;clipPath&quot;);M.setAttribute(&quot;id&quot;,m),M.appendChild(w),r.parentElement.insertBefore(M,r),y.setAttribute(&quot;clip-path&quot;,&quot;url(#&quot;+m+&quot;)&quot;),u=null,l=null,g=null}}if(a&amp;&amp;a[1]){const o=document.getElementById(a[1]);if(o&amp;&amp;&quot;meshgradient&quot;===o.nodeName){const i=parseFloat(r.style.strokeWidth.slice(0,-2))*(parseFloat(r.style.strokeMiterlimit)||parseFloat(r.getAttribute(&quot;stroke-miterlimit&quot;))||1),a=r.getBBox(),l=Math.trunc(a.width+i),c=Math.trunc(a.height+i),u=Math.trunc(a.x-i/2),f=Math.trunc(a.y-i/2);let p=document.createElementNS(s,&quot;canvas&quot;);d(p,{width:l,height:c});const y=p.getContext(&quot;2d&quot;);let g=y.createImageData(l,c);const w=new b(o);&quot;objectBoundingBox&quot;===o.getAttribute(&quot;gradientUnits&quot;)&amp;&amp;w.scale(new x(l,c));const m=o.getAttribute(&quot;gradientTransform&quot;);null!=m&amp;&amp;w.transform(h(m)),&quot;userSpaceOnUse&quot;===o.getAttribute(&quot;gradientUnits&quot;)&amp;&amp;w.transform(new x(-u,-f)),w.paintMesh(g.data,p.width),y.putImageData(g,0,0);const M=document.createElementNS(t,&quot;image&quot;);d(M,{width:l,height:c,x:0,y:0});let S=p.toDataURL();M.setAttributeNS(e,&quot;xlink:href&quot;,S);const k=&quot;pattern_clip&quot;+n,A=document.createElementNS(t,&quot;pattern&quot;);d(A,{id:k,patternUnits:&quot;userSpaceOnUse&quot;,width:l,height:c,x:u,y:f}),A.appendChild(M),o.parentNode.appendChild(A),r.style.stroke=&quot;url(#&quot;+k+&quot;)&quot;,g=null,p=null,S=null}}})}();
</script></svg>
